<svg xmlns="http://www.w3.org/2000/svg" id="Layer_2" data-name="Layer 2" viewBox="0 0 1062.09 302.41">
  <defs fill="#ffffff">
    <style>
      .cls-1 {
        fill: #ffffff;
      }

      .cls-2 {
        fill: #f63;
      }
    </style>
  </defs>
  <g id="Layer_1-2" data-name="Layer 1">
    <g>
      <path class="cls-2" d="M82.4,72L154.41,0h26.05s3.61,0,3.61,0l8.73,8.73h-34.78l-75.61,75.61v13.7L162.03,18.42h40.46l8.73,8.73h-45.57l-9.69,9.69h64.95l1.28,1.28,7.46,7.46h-82.42l-9.69,9.69h101.79l18.42,18.42h0l2.56,2.56v12.35l-24.59-24.59h-106.91l-9.69,9.69h112.58l28.61,28.61v12.35l-32.22-32.23h-13.71l45.93,45.93v12.35l-58.28-58.28h-13.7l71.97,71.97v26.05s.01.02.01.02v3.61l-8.71,8.71v-34.75l-75.61-75.61h-13.7l79.6,79.6v40.49l-8.7,8.7v-45.54l-9.71-9.71v64.95l-1.28,1.28-7.45,7.45v-82.42l-9.69-9.69v101.8l-18.42,18.42-2.56,2.56h-12.35l24.59-24.59v-106.91l-9.71-9.71v112.62l-28.59,28.59h-12.35l32.24-32.24v-13.71l-45.95,45.95h-12.35l58.29-58.29v-13.7l-71.98,71.98h-26.05l-.02.02h-3.61l-8.72-8.71h34.75l75.63-75.63v-13.7c-26.54,26.54-53.08,53.07-79.61,79.61h-40.49l-8.7-8.7h45.54l9.71-9.71H39.4l-1.28-1.28-7.46-7.46h82.42l9.69-9.69H20.98l-18.42-18.42L0,184.07v-12.35l24.59,24.59h106.92l9.69-9.69H28.61L0,158.01v-12.35s32.22,32.22,32.22,32.22h13.7L0,131.96v-12.35l58.28,58.28h13.71L.02,105.93v-26.05l-.02-.02v-3.61l8.72-8.72v34.75l75.61,75.61h13.71L18.44,98.3v-40.49s8.7-8.7,8.7-8.7v45.54l9.71,9.71V39.4l1.28-1.28,7.46-7.46h0v82.42l9.69,9.69V20.98L73.69,2.56h0s2.56-2.56,2.56-2.56h12.35l-24.59,24.59v106.91l9.7,9.71V28.6S102.3,0,102.3,0h12.35l-32.24,32.24v13.7L128.35,0h12.35l-58.29,58.3v13.7Z" fill="#ffffff"/>
      <path class="cls-1" d="M214.21,289.93c-.31-.47-.71-.89-1.25-1.23-.58-.37-1.31-.55-2.19-.55s-1.62.2-2.34.61c-.72.41-1.29.98-1.73,1.73-.44.75-.65,1.64-.65,2.67s.21,1.95.62,2.67c.41.72.97,1.26,1.69,1.63.71.37,1.5.56,2.37.56.53,0,1.02-.08,1.45-.25.44-.16.81-.36,1.12-.59.31-.23.56-.45.75-.68.08-.09.1-.14.16-.21v1.5h2.24v-9.27h-2.06l-.17,1.41ZM213.19,295.59c-.51.39-1.14.59-1.87.59-.53,0-1.03-.14-1.49-.41-.46-.27-.82-.65-1.1-1.12-.27-.47-.41-1.01-.41-1.6s.13-1.14.4-1.61c.27-.47.62-.83,1.06-1.09.44-.26.93-.39,1.46-.39.71,0,1.34.2,1.87.6.54.4.9.9,1.08,1.51v1.91c-.16.68-.5,1.22-1.01,1.61Z" fill="#ffffff"/>
      <path class="cls-1" d="M78.26,289.75c-.31-.46-.77-.84-1.4-1.14-.66-.31-1.4-.46-2.23-.46s-1.63.21-2.37.64c-.74.43-1.34,1.02-1.79,1.76-.45.75-.68,1.6-.68,2.56s.21,1.77.64,2.51c.43.74,1,1.32,1.71,1.75.71.43,1.49.64,2.35.64.99,0,1.82-.21,2.49-.63.58-.36.98-.81,1.25-1.32v1.76c-.01.8-.3,1.43-.84,1.91-.55.47-1.32.71-2.33.71-.64,0-1.2-.13-1.7-.38-.49-.25-.97-.6-1.43-1.04l-1.33,1.53c.38.34.79.65,1.21.93.42.28.9.51,1.43.68.53.17,1.15.26,1.86.26,1.09,0,2.04-.2,2.84-.61.8-.41,1.42-.95,1.86-1.64.44-.69.66-1.45.66-2.29v-9.34h-2.06l-.16,1.23ZM77.13,295.57c-.55.41-1.21.61-1.99.61-.58,0-1.1-.14-1.56-.41-.47-.27-.84-.65-1.11-1.12-.27-.47-.41-1.01-.41-1.6s.14-1.14.41-1.6c.27-.46.64-.82,1.11-1.09.47-.27.99-.4,1.56-.4.75,0,1.41.2,1.97.59.56.39.94.9,1.13,1.54v1.91c-.19.64-.56,1.16-1.11,1.56Z" fill="#ffffff"/>
      <path class="cls-1" d="M91.36,289.93c-.31-.47-.72-.89-1.25-1.23-.58-.37-1.31-.55-2.19-.55s-1.62.2-2.34.61c-.72.41-1.29.98-1.73,1.73-.44.75-.65,1.64-.65,2.67s.21,1.95.62,2.67c.41.72.97,1.26,1.69,1.63.71.37,1.5.56,2.37.56.53,0,1.02-.08,1.45-.25.44-.16.81-.36,1.12-.59.31-.23.56-.45.75-.68.08-.09.1-.14.16-.21v1.5h2.24v-9.27h-2.06l-.17,1.41ZM90.34,295.59c-.51.39-1.14.59-1.87.59-.53,0-1.03-.14-1.49-.41-.46-.27-.82-.65-1.1-1.12-.27-.47-.41-1.01-.41-1.6s.13-1.14.4-1.61c.27-.47.62-.83,1.06-1.09.44-.26.93-.39,1.46-.39.71,0,1.34.2,1.87.6.54.4.9.9,1.08,1.51v1.91c-.16.68-.5,1.22-1.01,1.61Z" fill="#ffffff"/>
      <path class="cls-1" d="M66.43,289.22c-.82-.72-1.85-1.07-3.09-1.07-.96,0-1.83.22-2.62.66-.78.44-1.41,1.04-1.87,1.79-.47.75-.7,1.58-.7,2.5s.21,1.79.62,2.54c.41.75,1.01,1.33,1.77,1.75.77.42,1.69.63,2.75.63.56,0,1.13-.09,1.7-.28.57-.18,1.09-.43,1.56-.74l-1.02-1.66c-.32.24-.67.43-1.04.57-.37.14-.75.21-1.15.21-.86,0-1.57-.29-2.13-.86-.14-.14-.21-.34-.32-.51l7.19-2.49c-.28-1.3-.83-2.31-1.65-3.03ZM60.37,292.96c0-.89.26-1.62.79-2.19.52-.57,1.2-.85,2.03-.85.66,0,1.19.17,1.57.52.35.32.6.69.78,1.11l-5.1,1.86c-.02-.16-.08-.29-.08-.46Z" fill="#ffffff"/>
      <polygon class="cls-1" points="47.93 281.72 45.62 281.72 45.62 297.8 56 297.8 56 295.56 47.93 295.56 47.93 281.72" fill="#ffffff"/>
      <path class="cls-1" d="M32.62,281.05l-7.07,16.74h2.31l1.65-4.04h6.06l1.58,4.04h2.68l-7.08-16.74h-.13ZM30.32,291.76l2.27-5.56,2.18,5.56h-4.46Z" fill="#ffffff"/>
      <polygon class="cls-1" points="232.28 288.55 232.28 284.47 230.02 284.47 230.02 288.55 228.37 288.55 228.37 290.3 230.02 290.3 230.02 297.8 232.28 297.8 232.28 290.3 234.76 290.3 234.76 288.55 232.28 288.55" fill="#ffffff"/>
      <path class="cls-1" d="M223.92,292.27c-.34-.12-.68-.23-1.01-.34-.33-.11-.6-.26-.81-.44-.21-.19-.31-.43-.31-.74s.15-.56.44-.74c.3-.18.64-.28,1.04-.28.29.01.62.09.99.23.36.14.68.34.94.61l.86-1.35c-.44-.37-.92-.63-1.44-.79-.52-.16-1.1-.23-1.75-.23-.74,0-1.36.14-1.86.41-.5.27-.88.63-1.12,1.06-.25.44-.37.9-.37,1.38,0,.64.2,1.19.61,1.65.41.46.99.82,1.76,1.07.37.1.72.21,1.04.33.33.12.6.27.81.44.21.18.32.43.32.75,0,.4-.16.68-.49.85-.33.17-.7.25-1.13.25-.37,0-.77-.1-1.19-.29-.42-.19-.82-.47-1.21-.84l-.95,1.29c.43.46.95.81,1.58,1.05.62.24,1.27.37,1.95.37.83,0,1.51-.14,2.05-.43.54-.29.94-.67,1.21-1.14.27-.47.4-.99.4-1.55,0-.74-.23-1.3-.68-1.69-.45-.38-1.02-.69-1.7-.91Z" fill="#ffffff"/>
      <path class="cls-1" d="M99.95,290.52c.44-.27.92-.4,1.45-.4.47,0,.9.08,1.29.24.38.16.7.35.95.55l1.11-1.44c-.43-.37-.93-.66-1.52-.87-.58-.21-1.26-.31-2.03-.31-.86,0-1.66.2-2.41.59-.75.39-1.35.95-1.81,1.67-.46.72-.69,1.59-.69,2.59s.21,1.85.64,2.57c.43.72,1.03,1.29,1.81,1.68.77.4,1.67.6,2.67.6.59,0,1.18-.1,1.76-.29.58-.19,1.08-.46,1.5-.8l-1.13-1.4c-.25.19-.54.35-.88.47-.33.12-.69.18-1.08.18-.59,0-1.12-.13-1.59-.4-.47-.27-.83-.63-1.09-1.09-.26-.46-.39-.97-.39-1.53s.12-1.09.38-1.55c.25-.46.6-.82,1.03-1.09Z" fill="#ffffff"/>
      <path class="cls-1" d="M129.17,289.45s-.04,0-.06-.02c.66-.35,1.19-.81,1.57-1.4.4-.63.6-1.38.6-2.25,0-1.38-.47-2.4-1.4-3.06-.93-.66-2.21-1-3.84-1h-4.24v16.08h4.86c.69,0,1.36-.08,2.01-.25.64-.17,1.22-.44,1.73-.8.51-.36.92-.83,1.22-1.41.3-.58.45-1.27.45-2.08,0-.89-.26-1.65-.79-2.3-.53-.64-1.23-1.15-2.12-1.51ZM124.11,283.96h2.04c.83,0,1.49.19,1.99.55.5.37.74.95.74,1.75,0,.65-.19,1.22-.58,1.7-.38.48-1,.72-1.84.72h-2.35v-4.72ZM128.77,295.07c-.61.38-1.34.58-2.22.58h-2.44v-4.72h2.28c.53,0,1.05.07,1.55.22.5.15.92.39,1.24.73.33.34.49.81.49,1.4,0,.81-.3,1.41-.91,1.8Z" fill="#ffffff"/>
      <rect class="cls-1" x="147.35" y="288.53" width="2.24" height="9.27" fill="#ffffff"/>
      <path class="cls-1" d="M148.55,283.98c-.33,0-.63.12-.9.36-.27.24-.41.52-.41.86,0,.37.14.67.41.89.27.22.57.33.9.33s.62-.11.89-.33c.27-.22.4-.52.4-.89,0-.34-.13-.63-.4-.86-.27-.24-.56-.36-.89-.36Z" fill="#ffffff"/>
      <rect class="cls-1" x="153.1" y="280.56" width="2.24" height="17.23" fill="#ffffff"/>
      <polygon class="cls-1" points="161.99 284.47 159.73 284.47 159.73 288.55 158.09 288.55 158.09 290.3 159.73 290.3 159.73 297.8 161.99 297.8 161.99 290.3 164.47 290.3 164.47 288.55 161.99 288.55 161.99 284.47" fill="#ffffff"/>
      <path class="cls-1" d="M141.59,292.76c0,.67-.12,1.26-.34,1.8-.23.53-.54.95-.94,1.25-.4.3-.85.45-1.35.45-.55-.03-.95-.19-1.2-.49-.25-.3-.39-.69-.42-1.18v-6.08h-2.24v6.88c.03.81.32,1.48.87,2,.55.52,1.25.78,2.11.78s1.59-.21,2.25-.62c.63-.39,1.07-.9,1.35-1.49l.14,1.74h2.02v-9.27h-2.24v4.24Z" fill="#ffffff"/>
      <path class="cls-1" d="M184.98,288.79c-.76-.43-1.65-.64-2.67-.64s-1.9.21-2.68.64c-.78.43-1.4,1.02-1.84,1.76-.44.75-.66,1.58-.66,2.52,0,1.01.23,1.88.68,2.63.45.75,1.06,1.32,1.84,1.72.78.4,1.65.6,2.63.6,1.03,0,1.93-.22,2.69-.65.76-.44,1.36-1.03,1.79-1.77.43-.75.64-1.59.64-2.52s-.21-1.77-.63-2.52c-.42-.75-1.01-1.34-1.77-1.76ZM184.31,295.29c-.54.59-1.23.89-2.07.89-.53,0-1.02-.14-1.45-.41-.44-.27-.78-.64-1.03-1.11-.25-.47-.38-.99-.38-1.56s.12-1.08.38-1.55c.25-.47.59-.85,1.02-1.13.43-.28.92-.42,1.46-.42.84,0,1.53.3,2.07.9.54.6.81,1.34.81,2.21s-.27,1.6-.81,2.19Z" fill="#ffffff"/>
      <polygon class="cls-1" points="195.82 281.72 193.51 281.72 193.51 297.8 203.89 297.8 203.89 295.56 195.82 295.56 195.82 281.72" fill="#ffffff"/>
      <polygon class="cls-1" points="172.97 284.47 170.71 284.47 170.71 288.55 169.07 288.55 169.07 290.3 170.71 290.3 170.71 297.8 172.97 297.8 172.97 290.3 175.45 290.3 175.45 288.55 172.97 288.55 172.97 284.47" fill="#ffffff"/>
      <polygon class="cls-1" points="111.35 294.94 108.45 288.53 105.95 288.53 110.22 297.48 108.1 302.26 110.27 302.26 116.26 288.53 114.2 288.53 111.35 294.94" fill="#ffffff"/>
      <path class="cls-1" d="M974.86,170.48h71.87v-76.8h15.36v-18.32h-87.23v38.26h20.01v-19.94h31.43v58.48h-31.43v-20.72h-20.01v39.03ZM858.42,170.48h92.28v-39.11h-19.73v20.79h-36.38v-20.86h25.32v-17.76h-25.32v-19.87h36.38v19.87h19.73v-38.19h-92.28v18.32h16.06v58.48h-16.06v18.32ZM745.8,132.99h19.3v-39.74h17.9v58.9h-25.79v18.32h72.01v-18.32h-25.79v-58.9h17.9v39.74h19.31v-57.63h-94.84v57.63ZM663.92,170.48h30.37l26.98-76.8h12.69v-18.32h-49.18v17.61h15.71l-15.29,44.74-3.73,15.29h-3.88l-3.73-15.29-15.15-44.74h14.52v-17.61h-49.04v18.32h12.68l27.06,76.8ZM560.42,170.48h54.89v-18.32h-17.26v-58.48h17.26v-18.32h-54.89v18.32h17.19v58.48h-17.19v18.32ZM509.9,170.48h36.5v-18.32h-16.06v-58.48h16.06v-18.32h-54.49v18.32h17.99v19.87h-38.47v-38.19h-36.5v18.32h16.06v58.48h-16.06v18.32h54.91v-18.32h-18.41v-20.86h38.47v39.18ZM338.89,170.48h76.52v-45.02l-47.18-15.15-9.61-2.18v-14.87h36.64v19.17h20.15v-37.06h-76.52v44.25l48.55,15.64,8.24,1.83v15.5h-36.64v-18.81h-20.15v36.71Z" fill="#ffffff"/>
      <path class="cls-1" d="M338.89,211.22h5.77v21.01h-5.77v6.58h32.61v-34.18h-32.61v6.58ZM352,211.22h11.9v21.01h-11.9v-21.01Z" fill="#ffffff"/>
      <polygon class="cls-1" points="397.17 211.22 402.95 211.22 402.95 232.23 397.17 232.23 397.17 238.81 430.33 238.81 430.33 224.76 423.24 224.76 423.24 232.23 410.17 232.23 410.17 224.74 419.27 224.74 419.27 218.36 410.17 218.36 410.17 211.22 423.24 211.22 423.24 218.36 430.33 218.36 430.33 204.63 397.17 204.63 397.17 211.22" fill="#ffffff"/>
      <polygon class="cls-1" points="475.77 210.96 481.42 210.96 475.92 227.04 474.58 232.53 473.19 232.53 471.85 227.04 466.4 210.96 471.62 210.96 471.62 204.63 454 204.63 454 211.22 458.56 211.22 468.28 238.81 479.19 238.81 488.89 211.22 493.44 211.22 493.44 204.63 475.77 204.63 475.77 210.96" fill="#ffffff"/>
      <polygon class="cls-1" points="515.37 211.22 521.14 211.22 521.14 232.23 515.37 232.23 515.37 238.81 548.53 238.81 548.53 224.76 541.44 224.76 541.44 232.23 528.37 232.23 528.37 224.74 537.47 224.74 537.47 218.36 528.37 218.36 528.37 211.22 541.44 211.22 541.44 218.36 548.53 218.36 548.53 204.63 515.37 204.63 515.37 211.22" fill="#ffffff"/>
      <polygon class="cls-1" points="598.73 232.23 587.19 232.23 587.19 211.22 598.5 211.22 598.5 204.63 574.07 204.63 574.07 211.22 579.84 211.22 579.84 232.23 574.07 232.23 574.07 238.81 605.97 238.81 605.97 218.38 598.73 218.38 598.73 232.23" fill="#ffffff"/>
      <path class="cls-1" d="M632.42,238.81h28.16v-34.18h-28.16v34.18ZM640.02,211.22h12.96v21.01h-12.96v-21.01Z" fill="#ffffff"/>
      <path class="cls-1" d="M686.25,211.22h5.77v21.01h-5.77v6.58h25.85v-6.58h-12.74v-5.59l3.37-.33,15.77-2.53v-19.14h-32.25v6.57ZM699.36,211.16h12.05v7.36l-3.37.38-8.69,1.31v-9.05Z" fill="#ffffff"/>
      <polygon class="cls-1" points="743.16 211.22 748.93 211.22 748.93 232.23 743.16 232.23 743.16 238.81 776.32 238.81 776.32 224.76 769.23 224.76 769.23 232.23 756.16 232.23 756.16 224.74 765.26 224.74 765.26 218.36 756.16 218.36 756.16 211.22 769.23 211.22 769.23 218.36 776.32 218.36 776.32 204.63 743.16 204.63 743.16 211.22" fill="#ffffff"/>
      <path class="cls-1" d="M829.29,223.82l6.29-1.27v-17.93h-33.17l.02,6.58h6.28v10.58l-4.55.99v16.03h7.58v-11.44l2.96-.35,7.97-1.77,3.16,7.44h-7.36v6.13h20.66v-6.58h-5.87l-3.96-8.4ZM828.35,217.95l-3.01.43-9.76,2.02v-9.39h12.77v6.94Z" fill="#ffffff"/>
      <polygon class="cls-1" points="891.53 217.95 891.53 204.63 864.04 204.63 864.04 220.53 881.48 226.15 884.44 226.81 884.44 232.38 871.28 232.38 871.28 225.62 864.04 225.62 864.04 238.81 891.53 238.81 891.53 222.63 874.58 217.19 871.13 216.41 871.13 211.06 884.29 211.06 884.29 217.95 891.53 217.95" fill="#ffffff"/>
    </g>
  </g>
</svg>